<svg width="16" height="17" viewBox="0 0 16 17" fill="none" xmlns="http://www.w3.org/2000/svg">
<path fill-rule="evenodd" clip-rule="evenodd" d="M16 8.5625C16 12.9808 12.4183 16.5625 8 16.5625C3.58171 16.5625 0 12.9808 0 8.5625C0 4.14421 3.58171 0.5625 8 0.5625C12.4183 0.5625 16 4.14421 16 8.5625ZM7.07465 12.7984L13.0101 6.86296C13.2117 6.66141 13.2117 6.33461 13.0101 6.13306L12.2802 5.40316C12.0787 5.20158 11.7519 5.20158 11.5503 5.40316L6.70968 10.2437L4.44971 7.98377C4.24816 7.78222 3.92136 7.78222 3.71977 7.98377L2.98987 8.71367C2.78832 8.91522 2.78832 9.24202 2.98987 9.44357L6.34471 12.7984C6.54629 13 6.87306 13 7.07464 12.7984H7.07465Z" fill="#EDEDED"/>
</svg>
